Coordinates
version=1
nRows=13
nColumns=40
inDegrees=yes

Units are S.I. units (second, meters, Newtons, ...)
If the header above contains a line with 'inDegrees', this indicates whether rotational values are in degrees (yes) or radians (no).

endheader
time	pelvis_tilt	pelvis_list	pelvis_rotation	pelvis_tx	pelvis_ty	pelvis_tz	hip_flexion_r	hip_adduction_r	hip_rotation_r	knee_angle_r	knee_angle_r_beta	ankle_angle_r	subtalar_angle_r	mtp_angle_r	hip_flexion_l	hip_adduction_l	hip_rotation_l	knee_angle_l	knee_angle_l_beta	ankle_angle_l	subtalar_angle_l	mtp_angle_l	lumbar_extension	lumbar_bending	lumbar_rotation	arm_flex_r	arm_add_r	arm_rot_r	elbow_flex_r	pro_sup_r	wrist_flex_r	wrist_dev_r	arm_flex_l	arm_add_l	arm_rot_l	elbow_flex_l	pro_sup_l	wrist_flex_l	wrist_dev_l
      4.40000000	     -3.23689457	     11.43223716	     -3.16028519	     -0.36685320	      1.01120192	     -0.79185728	     10.14632121	     -5.60877461	    -10.83195430	      3.51627807	      0.06137063	    -22.28623495	      0.00000000	      0.00000000	     51.67083549	     -2.18695901	    -14.86184574	     21.31894337	      0.37208575	    -26.53677409	      0.00000000	      0.00000000	     -8.02502705	    -34.58198648	    -13.77291571	     75.00973148	    -11.62398583	     14.90364698	     54.46732704	     87.50142458	      0.00000000	      0.00000000	     89.95928046	     10.51713175	     36.36150010	     32.23045086	     47.69707112	      0.00000000	      0.00000000
      4.40500000	     -3.22001052	     11.40551087	     -3.09206236	     -0.36657477	      1.01120825	     -0.79195098	     10.07727049	     -5.59163044	    -10.87464520	      3.47269686	      0.06060999	    -22.33854466	      0.00000000	      0.00000000	     51.71253624	     -2.18124464	    -14.92891045	     21.34727542	      0.37258024	    -26.34883586	      0.00000000	      0.00000000	     -8.05383365	    -34.56366038	    -13.75934754	     74.97897027	    -11.59262718	     14.77836461	     54.40686431	     87.48211900	      0.00000000	      0.00000000	     89.95928810	     10.49252187	     36.57912039	     32.17293505	     47.63967384	      0.00000000	      0.00000000
      4.41000000	     -3.20811029	     11.39178182	     -2.99179899	     -0.36631251	      1.01122717	     -0.79213779	     10.04760937	     -5.59783376	    -10.94908733	      3.53614468	      0.06171737	    -22.35872894	      0.00000000	      0.00000000	     51.73088553	     -2.12578042	    -14.95520583	     21.27349939	      0.37129261	    -26.47453045	      0.00000000	      0.00000000	     -8.16204060	    -34.53294792	    -13.85981954	     74.99509688	    -11.59829551	     14.82489642	     54.43911100	     87.52126105	      0.00000000	      0.00000000	     89.95921677	     10.48157495	     36.42186999	     32.26322609	     47.73942153	      0.00000000	      0.00000000
      4.41500000	     -3.20087119	     11.38065136	     -2.88937558	     -0.36611055	      1.01123199	     -0.79231754	     10.00883478	     -5.61047090	    -11.01705454	      3.54033998	      0.06179059	    -22.33588027	      0.00000000	      0.00000000	     51.78550648	     -2.08605103	    -15.02038616	     21.28673791	      0.37152366	    -26.42412570	      0.00000000	      0.00000000	     -8.25287402	    -34.53872855	    -13.95963001	     74.98585096	    -11.57092971	     14.77602621	     54.42201826	     87.49418448	      0.00000000	      0.00000000	     89.95929588	     10.47098457	     36.47012923	     32.28304317	     47.73293233	      0.00000000	      0.00000000
      4.42000000	     -3.11956574	     11.36106286	     -2.80176214	     -0.36578547	      1.01137203	     -0.79247309	      9.85068608	     -5.60836831	    -11.16804250	      3.43492174	      0.05995069	    -22.69582161	      0.00000000	      0.00000000	     51.72812911	     -2.02120003	    -15.01084766	     21.24709894	      0.37083183	    -26.23402384	      0.00000000	      0.00000000	     -8.40713137	    -34.52555222	    -14.06311645	     74.99812128	    -11.49408433	     14.72475369	     54.32734411	     87.18448445	      0.00000000	      0.00000000	     89.95919997	     10.43152893	     36.42771038	     32.36499848	     47.67176236	      0.00000000	      0.00000000
      4.42500000	     -3.16610019	     11.35376846	     -2.67341033	     -0.36559759	      1.01128937	     -0.79269722	      9.89529956	     -5.63119057	    -11.14826403	      3.55302525	      0.06201199	    -22.25643738	      0.00000000	      0.00000000	     51.82333509	     -1.96567309	    -15.06065848	     21.21842800	      0.37033143	    -26.38861726	      0.00000000	      0.00000000	     -8.43053533	    -34.53451401	    -14.10520036	     74.94220622	    -11.58482153	     14.73450594	     54.40031743	     87.51520504	      0.00000000	      0.00000000	     89.95921869	     10.50282759	     36.42359160	     32.22337261	     47.68979140	      0.00000000	      0.00000000
      4.43000000	     -3.13892541	     11.31849538	     -2.57916717	     -0.36528548	      1.01128904	     -0.79289174	      9.83384391	     -5.62620272	    -11.24569457	      3.55673527	      0.06207674	    -22.15648009	      0.00000000	      0.00000000	     51.83473189	     -1.92768697	    -15.05394056	     21.18812234	      0.36980250	    -26.36388541	      0.00000000	      0.00000000	     -8.51934610	    -34.50524531	    -14.17365074	     74.92714690	    -11.57018355	     14.70640093	     54.38740446	     87.50302599	      0.00000000	      0.00000000	     89.95918903	     10.50196669	     36.49238226	     32.18047903	     47.76595409	      0.00000000	      0.00000000
      4.43500000	     -3.14276285	     11.31704392	     -2.49388575	     -0.36504499	      1.01129334	     -0.79306065	      9.84706716	     -5.65334833	    -11.24459371	      3.65869518	      0.06385628	    -22.12615763	      0.00000000	      0.00000000	     51.86873806	     -1.87862847	    -15.09697267	     21.13254998	      0.36883258	    -26.42732969	      0.00000000	      0.00000000	     -8.56536017	    -34.53126533	    -14.20650193	     74.88066619	    -11.60558464	     14.70270795	     54.40645541	     87.52475758	      0.00000000	      0.00000000	     89.95926659	     10.52645324	     36.67509347	     32.11309426	     47.86441330	      0.00000000	      0.00000000
      4.44000000	     -3.11186688	     11.29316531	     -2.40552880	     -0.36477518	      1.01132225	     -0.79326264	      9.78803641	     -5.65977388	    -11.29150072	      3.68575525	      0.06432856	    -22.08888327	      0.00000000	      0.00000000	     51.88065484	     -1.83358025	    -15.18090865	     21.13903939	      0.36894584	    -26.45564975	      0.00000000	      0.00000000	     -8.65707745	    -34.51433485	    -14.25841932	     74.86312640	    -11.59924788	     14.67369723	     54.37260497	     87.51729734	      0.00000000	      0.00000000	     89.95925359	     10.52732943	     36.69193142	     32.06373859	     47.89901531	      0.00000000	      0.00000000
      4.44500000	     -3.12168138	     11.27826431	     -2.33847120	     -0.36452636	      1.01126589	     -0.79341564	      9.80164549	     -5.66854564	    -11.36434850	      3.74809526	      0.06541660	    -22.04650678	      0.00000000	      0.00000000	     51.91801561	     -1.80548560	    -15.15118902	     21.09062519	      0.36810085	    -26.35948002	      0.00000000	      0.00000000	     -8.70502586	    -34.52529879	    -14.30234796	     74.83360726	    -11.60329106	     14.67051400	     54.40746185	     87.52650295	      0.00000000	      0.00000000	     89.95919756	     10.53651437	     36.66019589	     32.07477782	     47.91285016	      0.00000000	      0.00000000
      4.45000000	     -3.11467898	     11.24213596	     -2.26029262	     -0.36426174	      1.01124755	     -0.79359595	      9.77686912	     -5.65734490	    -11.41116761	      3.77077633	      0.06581246	    -22.07938533	      0.00000000	      0.00000000	     51.96482891	     -1.79905704	    -15.20940911	     21.14921104	      0.36912337	    -26.19734312	      0.00000000	      0.00000000	     -8.74347842	    -34.49929286	    -14.32014405	     74.80183766	    -11.57166772	     14.60440242	     54.36311764	     87.42843410	      0.00000000	      0.00000000	     89.95925025	     10.50762194	     36.94099609	     32.02526964	     47.90796456	      0.00000000	      0.00000000
      4.45500000	     -3.11333718	     11.22909305	     -2.18651455	     -0.36402963	      1.01122840	     -0.79379290	      9.75902028	     -5.66722580	    -11.40431396	      3.81033292	      0.06650285	    -21.96798799	      0.00000000	      0.00000000	     51.98096890	     -1.74352582	    -15.18055202	     21.07683431	      0.36786015	    -26.34453445	      0.00000000	      0.00000000	     -8.80023194	    -34.49386124	    -14.33272153	     74.77330221	    -11.61710364	     14.61998316	     54.41969390	     87.53608520	      0.00000000	      0.00000000	     89.95912308	     10.56906706	     36.78268366	     31.99764562	     48.03866205	      0.00000000	      0.00000000
      4.46000000	     -3.09886617	     11.17972474	     -2.09079838	     -0.36374127	      1.01121452	     -0.79399250	      9.72078705	     -5.64724050	    -11.58151344	      3.81381684	      0.06656366	    -21.90506459	      0.00000000	      0.00000000	     52.01388832	     -1.72951202	    -15.18584932	     21.12601309	      0.36871849	    -26.11772879	      0.00000000	      0.00000000	     -8.87823143	    -34.45396079	    -14.39506078	     74.75682414	    -11.59528647	     14.57942701	     54.39075459	     87.45233213	      0.00000000	      0.00000000	     89.95906051	     10.55059118	     36.86407330	     31.98191460	     47.97465498	      0.00000000	      0.00000000
